<?xml version="1.0" standalone="no"?>
<!DOCTYPE svg PUBLIC "-//W3C//DTD SVG 20010904//EN"
 "http://www.w3.org/TR/2001/REC-SVG-20010904/DTD/svg10.dtd">
<svg version="1.0" xmlns="http://www.w3.org/2000/svg"
 width="213.000000pt" height="239.000000pt" viewBox="0 0 213.000000 239.000000"
 preserveAspectRatio="xMidYMid meet">

<g transform="translate(0.000000,239.000000) scale(0.100000,-0.100000)"
fill="#000000" stroke="none">
<path d="M405 2231 c-183 -6 -206 -13 -262 -73 -55 -58 -53 -28 -53 -943 0
-925 -2 -885 58 -948 15 -16 44 -38 66 -49 37 -19 58 -19 611 -18 326 0 587 5
605 10 51 15 105 55 131 97 12 21 24 40 26 42 2 3 70 -61 151 -141 178 -177
210 -193 291 -147 49 28 73 63 79 115 8 78 -5 93 -201 232 -99 70 -184 130
-189 133 -5 3 -2 34 7 70 34 128 -3 273 -94 372 l-40 44 -3 535 -3 536 -30 43
c-19 27 -50 54 -84 71 l-53 28 -422 -2 c-231 -1 -497 -4 -591 -7z m1062 -77
c15 -11 38 -40 51 -64 22 -44 22 -46 22 -532 0 -268 -4 -488 -8 -488 -4 0 -35
9 -67 21 -84 30 -217 24 -295 -13 -113 -52 -195 -155 -226 -282 -44 -176 52
-368 223 -448 90 -42 199 -50 288 -20 33 11 61 19 63 18 1 -2 -7 -15 -19 -30
-44 -57 -32 -55 -631 -63 -304 -3 -570 -3 -591 1 -50 9 -114 67 -127 114 -11
40 -15 1626 -4 1680 9 44 62 100 109 117 33 12 140 14 612 12 559 -2 572 -2
600 -23z m13 -1128 c72 -36 143 -106 172 -170 19 -42 23 -68 23 -146 0 -87 -3
-100 -32 -156 -72 -138 -210 -207 -367 -182 -111 17 -197 81 -248 186 -30 60
-33 75 -33 157 0 81 3 96 32 151 88 168 292 241 453 160z m260 -575 c0 -4 -16
-26 -36 -50 l-37 -42 -28 27 -28 27 36 43 35 44 29 -21 c16 -11 29 -24 29 -28z
m212 -143 c74 -53 98 -76 103 -98 12 -54 -36 -109 -94 -110 -30 0 -47 13 -144
109 l-111 109 43 51 43 51 31 -22 c18 -12 76 -53 129 -90z"/>
<path d="M1074 2037 c-8 -22 3 -37 29 -37 52 -1 43 -17 -46 -85 -50 -38 -96
-73 -103 -77 -6 -4 -63 17 -128 47 -64 30 -121 55 -127 55 -6 0 -73 -55 -150
-122 -133 -118 -159 -151 -124 -164 15 -6 23 0 183 139 l101 88 110 -56 c61
-30 119 -55 128 -55 10 1 65 39 123 85 l105 84 3 -40 c3 -33 7 -39 26 -39 27
0 31 11 42 106 7 71 10 69 -95 80 -59 5 -72 4 -77 -9z"/>
<path d="M1137 1804 c-4 -4 -7 -125 -7 -270 0 -230 2 -263 16 -268 33 -12 191
-7 203 8 8 9 11 90 9 272 l-3 259 -106 3 c-58 1 -108 -1 -112 -4z m163 -264
l0 -220 -60 0 -60 0 0 220 0 220 60 0 60 0 0 -220z"/>
<path d="M613 1743 c-10 -3 -13 -61 -13 -238 0 -203 2 -234 16 -239 29 -11
189 -7 202 6 9 9 12 75 12 235 0 210 -1 223 -19 233 -20 10 -175 13 -198 3z
m157 -238 l0 -185 -55 0 -55 0 0 185 0 185 55 0 55 0 0 -185z"/>
<path d="M866 1575 c-3 -9 -6 -79 -6 -155 0 -106 3 -140 14 -149 9 -8 48 -11
112 -9 l99 3 0 160 0 160 -106 3 c-91 2 -108 0 -113 -13z m172 -147 l3 -108
-61 0 -60 0 0 110 0 111 58 -3 57 -3 3 -107z"/>
<path d="M346 1524 c-22 -21 -23 -235 -2 -253 9 -8 48 -11 112 -9 l99 3 3 129
c2 97 -1 131 -10 138 -7 4 -52 8 -100 8 -66 0 -90 -4 -102 -16z m164 -124 l0
-80 -60 0 -60 0 0 80 0 80 60 0 60 0 0 -80z"/>
<path d="M273 1204 c-3 -8 -1 -20 4 -25 5 -5 229 -8 569 -7 551 3 559 3 559
23 0 20 -8 20 -563 23 -504 2 -563 1 -569 -14z"/>
<path d="M285 956 c-16 -12 -17 -16 -6 -30 12 -14 51 -16 323 -16 277 0 309 2
315 16 15 40 -17 44 -322 44 -233 0 -295 -3 -310 -14z"/>
<path d="M273 794 c-3 -8 -1 -20 4 -25 5 -5 124 -8 294 -7 276 3 284 4 284 23
0 19 -8 20 -288 23 -255 2 -288 0 -294 -14z"/>
<path d="M281 646 c-6 -7 -9 -21 -5 -30 6 -15 35 -16 292 -14 272 3 287 4 290
22 2 10 -2 22 -10 27 -7 5 -135 9 -284 9 -218 0 -274 -3 -283 -14z"/>
<path d="M274 485 c-3 -8 -3 -19 1 -25 4 -6 113 -10 325 -10 261 0 319 2 323
14 13 33 -14 36 -330 36 -265 0 -314 -2 -319 -15z"/>
<path d="M1255 997 c-67 -23 -101 -44 -143 -92 -97 -110 -97 -280 -1 -389 119
-135 329 -135 448 0 54 62 75 127 69 219 -4 55 -11 84 -31 117 -32 55 -94 112
-144 133 -53 22 -149 28 -198 12z m180 -66 c88 -40 139 -122 139 -221 0 -279
-392 -330 -470 -61 -18 61 -13 114 15 169 24 47 76 97 121 116 49 21 146 20
195 -3z"/>
<path d="M1317 933 c-4 -3 -7 -17 -7 -31 0 -16 -13 -36 -37 -57 -66 -57 -46
-116 55 -161 59 -26 72 -59 27 -70 -34 -8 -53 1 -65 31 -17 45 -69 24 -53 -22
9 -26 44 -63 60 -63 8 0 13 -12 13 -34 0 -33 13 -47 38 -39 6 3 12 16 12 29 0
16 15 39 40 63 66 62 53 106 -46 153 -68 32 -82 58 -44 78 28 15 57 4 72 -28
15 -31 45 -41 54 -17 9 23 -21 82 -45 90 -12 3 -24 18 -27 33 -3 15 -7 33 -10
40 -4 13 -26 16 -37 5z"/>
</g>
</svg>
